<svg width="280" height="352" viewBox="0 0 280 352" fill="none" xmlns="http://www.w3.org/2000/svg">
<g filter="url(#filter0_d)">
<path d="M5 1H275C275 1 275 34.5 252.5 50.5C213.64 78.1335 171.234 90.4707 140 126.5C106.414 165.242 140.5 200 92 266.5C43.5 333 5 342.5 5 342.5V1Z" fill="#FF2222"/>
<path d="M5 1H275C275 1 275 34.5 252.5 50.5C213.64 78.1335 171.234 90.4707 140 126.5C106.414 165.242 140.5 200 92 266.5C43.5 333 5 342.5 5 342.5V1Z" stroke="black"/>
</g>
<defs>
<filter id="filter0_d" x="0.5" y="0.5" width="279" height="350.638" filterUnits="userSpaceOnUse" color-interpolation-filters="sRGB">
<feFlood flood-opacity="0" result="BackgroundImageFix"/>
<feColorMatrix in="SourceAlpha" type="matrix" values="0 0 0 0 0 0 0 0 0 0 0 0 0 0 0 0 0 0 127 0"/>
<feOffset dy="4"/>
<feGaussianBlur stdDeviation="2"/>
<feColorMatrix type="matrix" values="0 0 0 0 0 0 0 0 0 0 0 0 0 0 0 0 0 0 0.25 0"/>
<feBlend mode="normal" in2="BackgroundImageFix" result="effect1_dropShadow"/>
<feBlend mode="normal" in="SourceGraphic" in2="effect1_dropShadow" result="shape"/>
</filter>
</defs>
</svg>
